<?xml version="1.0" encoding="UTF-8" standalone="no"?>
<!DOCTYPE svg PUBLIC "-//W3C//DTD SVG 1.1//EN"
"http://www.w3.org/Graphics/SVG/1.1/DTD/svg11.dtd">
<svg viewBox="0 0 909 1286" version="1.1" xmlns="http://www.w3.org/2000/svg" xmlns:xlink="http://www.w3.org/1999/xlink">
<defs>
</defs>
<g fill="#000000" >
<use xlink:href="#f0_13" transform="matrix(16.1,0,0,16.1,411.6,133.1)" />
<use xlink:href="#f0_28" transform="matrix(16.1,0,0,16.1,429.1,133.1)" />
<use xlink:href="#f0_1x" transform="matrix(16.1,0,0,16.1,436.1,133.1)" />
<use xlink:href="#f0_2f" transform="matrix(16.1,0,0,16.1,448.5,133.1)" />
<use xlink:href="#f0_2f" transform="matrix(16.1,0,0,16.1,458.1,133.1)" />
<use xlink:href="#f0_l" transform="matrix(16.1,0,0,16.1,473.5,133.1)" />
<use xlink:href="#f0_l" transform="matrix(16.1,0,0,16.1,485.6,133.1)" />
<use xlink:href="#f0_19" transform="matrix(16.1,0,0,16.1,347,175.7)" />
<use xlink:href="#f0_29" transform="matrix(16.1,0,0,16.1,356.6,175.7)" />
<use xlink:href="#f0_2c" transform="matrix(16.1,0,0,16.1,376.7,175.7)" />
<use xlink:href="#f0_2b" transform="matrix(16.1,0,0,16.1,390.3,175.7)" />
<use xlink:href="#f0_2e" transform="matrix(16.1,0,0,16.1,402.7,175.7)" />
<use xlink:href="#f0_2g" transform="matrix(16.1,0,0,16.1,413.7,175.7)" />
<use xlink:href="#f0_1x" transform="matrix(16.1,0,0,16.1,421.8,175.7)" />
<use xlink:href="#f0_2a" transform="matrix(16.1,0,0,16.1,434.2,175.7)" />
<use xlink:href="#f0_2g" transform="matrix(16.1,0,0,16.1,447.7,175.7)" />
<use xlink:href="#f0_16" transform="matrix(16.1,0,0,16.1,462,175.7)" />
<use xlink:href="#f0_2b" transform="matrix(16.1,0,0,16.1,476.7,175.7)" />
<use xlink:href="#f0_2e" transform="matrix(16.1,0,0,16.1,489.1,175.7)" />
<use xlink:href="#f0_29" transform="matrix(16.1,0,0,16.1,500.1,175.7)" />
<use xlink:href="#f0_2h" transform="matrix(16.1,0,0,16.1,519.9,175.7)" />
<use xlink:href="#f0_28" transform="matrix(16.1,0,0,16.1,533.5,175.7)" />
<use xlink:href="#f0_1x" transform="matrix(16.1,0,0,16.1,540.4,175.7)" />
<use xlink:href="#f0_2f" transform="matrix(16.1,0,0,16.1,552.8,175.7)" />
<use xlink:href="#f0_13" transform="matrix(16.1,0,0,16.1,369,218.2)" />
<use xlink:href="#f0_24" transform="matrix(16.1,0,0,16.1,386.6,218.2)" />
<use xlink:href="#f0_1x" transform="matrix(16.1,0,0,16.1,400.2,218.2)" />
<use xlink:href="#f0_2c" transform="matrix(16.1,0,0,16.1,412.6,218.2)" />
<use xlink:href="#f0_2g" transform="matrix(16.1,0,0,16.1,426.2,218.2)" />
<use xlink:href="#f0_21" transform="matrix(16.1,0,0,16.1,434.2,218.2)" />
<use xlink:href="#f0_2e" transform="matrix(16.1,0,0,16.1,445.2,218.2)" />
<use xlink:href="#f0_l" transform="matrix(16.1,0,0,16.1,462.2,218.2)" />
<use xlink:href="#f1_4y" transform="matrix(16.1,0,0,16.1,480.5,218.2)" />
<use xlink:href="#f0_1j" transform="matrix(16.1,0,0,16.1,499.2,218.2)" />
<use xlink:href="#f0_21" transform="matrix(16.1,0,0,16.1,512.4,218.2)" />
<use xlink:href="#f0_2g" transform="matrix(16.1,0,0,16.1,523.4,218.2)" />
<use xlink:href="#f0_2f" transform="matrix(16.1,0,0,16.1,531.4,218.2)" />
</g>
<image preserveAspectRatio="none" x="110" y="280" width="689" height="357" xlink:href="img/1.png" />
<image preserveAspectRatio="none" x="110" y="639" width="689" height="411" xlink:href="img/2.png" />
<g fill="#000000" >
<use xlink:href="#f2_l" transform="matrix(8,0,0,8,792.5,1264.1)" />
</g>
<defs>
<path d="M593,-14c0,0,-254,0,-392,143C201,129,63,272,63,531c0,0,0,258,133,397c0,0,134,139,387,139c0,0,185,0,302,-74c0,0,116,-75,163,-218L854,722c0,0,-24,79,-96,125c0,0,-72,47,-170,47c0,0,-149,0,-227,-93c0,0,-77,-92,-77,-270c0,0,0,-182,80,-277c0,0,79,-96,229,-96c0,0,199,0,277,200l192,-72c0,0,-62,-152,-182,-227c0,0,-120,-73,-287,-73Z" 
id="f0_13"
transform="scale(0.001,-0.001)" />

<path d="M107,0V1107H316V0Z" 
id="f0_28"
transform="scale(0.001,-0.001)" />

<path d="M360,132c0,0,50,0,90,27c0,0,41,27,64,74c0,0,23,47,23,100v41L430,373c0,0,-73,-3,-104,-16c0,0,-31,-13,-47,-40c0,0,-16,-27,-16,-72c0,0,0,-57,27,-85c0,0,26,-28,70,-28ZM293,-14c0,0,-117,0,-183,63c0,0,-65,64,-65,180c0,0,0,125,81,191c0,0,82,65,237,67l174,3v41c0,0,0,79,-27,117c0,0,-28,38,-91,38c0,0,-58,0,-85,-26c0,0,-27,-27,-34,-88L81,583c0,0,20,118,108,179c0,0,88,60,239,60c0,0,153,0,236,-75c0,0,83,-75,83,-214V239c0,0,0,-67,15,-93c0,0,15,-26,51,-26c0,0,24,0,46,5V11c0,0,-18,-5,-33,-8c0,0,-15,-3,-30,-5c0,0,-15,-3,-32,-4c0,0,-17,-2,-39,-2c0,0,-79,0,-117,38c0,0,-37,39,-45,114h-4c0,0,-88,-158,-266,-158Z" 
id="f0_1x"
transform="scale(0.001,-0.001)" />

<path d="M426,-14c0,0,-166,0,-255,52C171,38,83,90,54,201l184,28c0,0,16,-57,54,-81c0,0,38,-24,134,-24c0,0,88,0,128,22c0,0,41,23,41,70c0,0,0,39,-33,62c0,0,-32,23,-110,38c0,0,-177,35,-239,65c0,0,-62,31,-95,79c0,0,-32,48,-32,118c0,0,0,115,89,180c0,0,89,64,252,64c0,0,144,0,232,-56c0,0,88,-56,109,-162L583,585c0,0,-9,49,-44,74c0,0,-35,24,-112,24c0,0,-74,0,-111,-19c0,0,-38,-19,-38,-64c0,0,0,-35,29,-55c0,0,29,-21,97,-34c0,0,94,-20,168,-40c0,0,73,-21,118,-49c0,0,44,-28,71,-73c0,0,26,-44,26,-113c0,0,0,-117,-96,-184c0,0,-96,-66,-265,-66Z" 
id="f0_2f"
transform="scale(0.001,-0.001)" />

<path d="M96,0V155H357V873L104,716V881l264,170H566V155H807V0Z" 
id="f0_l"
transform="scale(0.001,-0.001)" />

<path d="M102,0V1051H322V0Z" 
id="f0_19"
transform="scale(0.001,-0.001)" />

<path d="M107,0V627c0,0,0,65,-2,106c0,0,-2,42,-4,75H301c0,0,2,-15,6,-77c0,0,3,-61,3,-85h3c0,0,39,93,97,135c0,0,58,41,138,41c0,0,185,0,225,-176h4c0,0,41,94,99,135c0,0,57,41,146,41c0,0,118,0,180,-80c0,0,62,-80,62,-230V0H1056V452c0,0,0,213,-123,213c0,0,-61,0,-100,-59c0,0,-39,-60,-43,-164V0H582V452c0,0,0,213,-122,213c0,0,-64,0,-104,-65c0,0,-40,-65,-40,-168V0Z" 
id="f0_29"
transform="scale(0.001,-0.001)" />

<path d="M484,129c0,0,168,0,168,279c0,0,0,271,-166,271c0,0,-84,0,-128,-73c0,0,-45,-73,-45,-204c0,0,0,-131,45,-202c0,0,44,-71,126,-71ZM107,-316V622c0,0,0,114,-6,186H304c0,0,4,-14,7,-54c0,0,2,-39,2,-78h3c0,0,71,148,258,148c0,0,141,0,219,-108c0,0,78,-109,78,-309c0,0,0,-202,-81,-312C790,95,709,-14,561,-14c0,0,-85,0,-148,36c0,0,-63,37,-97,107h-4c0,0,4,-23,4,-135V-316Z" 
id="f0_2c"
transform="scale(0.001,-0.001)" />

<path d="M461,129c0,0,193,0,193,276c0,0,0,144,-47,209c0,0,-47,65,-136,65c0,0,-191,0,-191,-274c0,0,0,-135,46,-205c0,0,47,-71,135,-71Zm2,-143c0,0,-188,0,-296,111C167,97,60,209,60,405c0,0,0,194,107,306c0,0,108,111,301,111c0,0,197,0,301,-107c0,0,105,-108,105,-310c0,0,0,-197,-109,-308C765,97,656,-14,463,-14Z" 
id="f0_2b"
transform="scale(0.001,-0.001)" />

<path d="M107,0V618c0,0,0,66,-2,111c0,0,-2,44,-4,79H301c0,0,2,-14,6,-83c0,0,3,-68,3,-91h3c0,0,31,85,55,120c0,0,24,35,56,52c0,0,33,16,83,16c0,0,40,0,64,-11V636c0,0,-50,11,-89,11c0,0,-78,0,-122,-63c0,0,-44,-63,-44,-188V0Z" 
id="f0_2e"
transform="scale(0.001,-0.001)" />

<path d="M313,-13c0,0,-92,0,-142,50c0,0,-50,50,-50,152V666H19V808H131l66,189H328V808H481V666H328V245c0,0,0,-59,23,-87c0,0,22,-28,69,-28c0,0,25,0,70,10V11c0,0,-77,-24,-177,-24Z" 
id="f0_2g"
transform="scale(0.001,-0.001)" />

<path d="M107,0V627c0,0,0,65,-2,106c0,0,-2,42,-4,75H301c0,0,2,-15,6,-77c0,0,3,-61,3,-85h3c0,0,43,93,107,135c0,0,64,41,153,41c0,0,128,0,197,-79c0,0,68,-79,68,-231V0H630V452c0,0,0,213,-144,213c0,0,-76,0,-123,-65c0,0,-47,-66,-47,-168V0Z" 
id="f0_2a"
transform="scale(0.001,-0.001)" />

<path d="M102,0V1051H877V881H322V555H860V385H322V0Z" 
id="f0_16"
transform="scale(0.001,-0.001)" />

<path d="M360,-14c0,0,-128,0,-197,78c0,0,-68,79,-68,231V808H304V355c0,0,0,-212,144,-212c0,0,76,0,122,65c0,0,47,65,47,167V808H827V181c0,0,0,-103,6,-181H633c0,0,-9,108,-9,161h-4C620,161,578,69,514,27c0,0,-65,-41,-154,-41Z" 
id="f0_2h"
transform="scale(0.001,-0.001)" />

<path d="M630,0V452c0,0,0,213,-144,213c0,0,-76,0,-123,-65c0,0,-47,-66,-47,-168V0H107V1107H316V805c0,0,0,-81,-6,-159h3c0,0,43,93,107,135c0,0,64,41,153,41c0,0,128,0,197,-79c0,0,68,-79,68,-231V0Z" 
id="f0_24"
transform="scale(0.001,-0.001)" />

<path d="M595,495c0,0,-6,98,-47,147c0,0,-41,49,-111,49c0,0,-74,0,-114,-51c0,0,-40,-52,-42,-145ZM437,-14c0,0,-182,0,-280,107c0,0,-97,108,-97,315c0,0,0,199,99,307c0,0,99,107,281,107c0,0,174,0,266,-115c0,0,91,-115,91,-337v-6H280c0,0,0,-118,43,-179c0,0,44,-60,125,-60c0,0,111,0,140,97L786,205c0,0,-86,-219,-349,-219Z" 
id="f0_21"
transform="scale(0.001,-0.001)" />

<path d="M-12,307v90H776V307Z" 
id="f1_4y"
transform="scale(0.001,-0.001)" />

<path d="M509,-14c0,0,-202,0,-317,71C192,57,77,129,44,274l213,35c0,0,21,-83,84,-121c0,0,63,-37,174,-37c0,0,230,0,230,139c0,0,0,45,-26,74c0,0,-27,29,-75,49c0,0,-48,19,-184,47c0,0,-118,27,-165,44c0,0,-46,17,-83,40c0,0,-37,22,-64,54c0,0,-26,32,-40,76c0,0,-15,43,-15,99c0,0,0,142,107,218c0,0,107,76,312,76c0,0,195,0,293,-61c0,0,98,-62,127,-203L718,774c0,0,-16,68,-66,103c0,0,-51,34,-145,34c0,0,-200,0,-200,-125c0,0,0,-41,22,-68c0,0,21,-26,63,-44c0,0,41,-18,169,-46c0,0,151,-32,217,-59c0,0,65,-27,103,-63c0,0,38,-37,58,-87c0,0,20,-50,20,-116c0,0,0,-154,-114,-236c0,0,-115,-81,-336,-81Z" 
id="f0_1j"
transform="scale(0.001,-0.001)" />

<path d="M116,0V114H384V923L147,754V881l248,170H519V114H775V0Z" 
id="f2_l"
transform="scale(0.001,-0.001)" />


</defs>
</svg>