<?xml version="1.0" encoding="UTF-8" standalone="no"?>
<!DOCTYPE svg PUBLIC "-//W3C//DTD SVG 1.1//EN"
"http://www.w3.org/Graphics/SVG/1.1/DTD/svg11.dtd">
<svg viewBox="0 0 909 1286" version="1.1" xmlns="http://www.w3.org/2000/svg" xmlns:xlink="http://www.w3.org/1999/xlink">
<defs>
</defs>
<g fill="#000000" >
<use xlink:href="#f0_1h" transform="matrix(12,0,0,12,110,127.3)" />
<use xlink:href="#f0_2h" transform="matrix(12,0,0,12,124.3,127.3)" />
<use xlink:href="#f0_1x" transform="matrix(12,0,0,12,134.6,127.3)" />
<use xlink:href="#f0_20" transform="matrix(12,0,0,12,143.8,127.3)" />
<use xlink:href="#f0_2e" transform="matrix(12,0,0,12,154,127.3)" />
<use xlink:href="#f0_1x" transform="matrix(12,0,0,12,161.7,127.3)" />
<use xlink:href="#f0_2g" transform="matrix(12,0,0,12,170.9,127.3)" />
<use xlink:href="#f0_25" transform="matrix(12,0,0,12,177.1,127.3)" />
<use xlink:href="#f0_1z" transform="matrix(12,0,0,12,182.2,127.3)" />
<use xlink:href="#f0_15" transform="matrix(12,0,0,12,195,127.3)" />
<use xlink:href="#f0_2d" transform="matrix(12,0,0,12,207.1,127.3)" />
<use xlink:href="#f0_2h" transform="matrix(12,0,0,12,217.4,127.3)" />
<use xlink:href="#f0_1x" transform="matrix(12,0,0,12,227.6,127.3)" />
<use xlink:href="#f0_2g" transform="matrix(12,0,0,12,236.8,127.3)" />
<use xlink:href="#f0_25" transform="matrix(12,0,0,12,243,127.3)" />
<use xlink:href="#f0_2b" transform="matrix(12,0,0,12,248.1,127.3)" />
<use xlink:href="#f0_2a" transform="matrix(12,0,0,12,257.3,127.3)" />
<use xlink:href="#f0_2f" transform="matrix(12,0,0,12,267.6,127.3)" />
<use xlink:href="#f0_u" transform="matrix(12,0,0,12,274.5,127.3)" />
</g>
<image preserveAspectRatio="none" x="110" y="192" width="689" height="668" xlink:href="img/1.png" />
<g fill="#000000" >
<use xlink:href="#f1_n" transform="matrix(8,0,0,8,792.5,1264.1)" />
</g>
<defs>
<path d="M592,157c0,0,147,0,227,97c0,0,81,97,81,276c0,0,0,171,-81,267c0,0,-80,97,-226,97c0,0,-148,0,-228,-96c0,0,-81,-96,-81,-268c0,0,0,-173,82,-273c0,0,82,-100,226,-100ZM840,-300c0,0,-122,0,-201,68c0,0,-80,68,-129,225c0,0,-212,19,-330,161C180,154,63,297,63,530c0,0,0,253,140,395c0,0,140,142,390,142c0,0,250,0,391,-143c0,0,140,-144,140,-394c0,0,0,-210,-103,-350C1021,180,918,40,733,3c0,0,26,-73,72,-106c0,0,45,-33,128,-33c0,0,44,0,89,8l-1,-151c0,0,-94,-21,-181,-21Z" 
id="f0_1h"
transform="scale(0.001,-0.001)" />

<path d="M360,-14c0,0,-128,0,-197,78c0,0,-68,79,-68,231V808H304V355c0,0,0,-212,144,-212c0,0,76,0,122,65c0,0,47,65,47,167V808H827V181c0,0,0,-103,6,-181H633c0,0,-9,108,-9,161h-4C620,161,578,69,514,27c0,0,-65,-41,-154,-41Z" 
id="f0_2h"
transform="scale(0.001,-0.001)" />

<path d="M360,132c0,0,50,0,90,27c0,0,41,27,64,74c0,0,23,47,23,100v41L430,373c0,0,-73,-3,-104,-16c0,0,-31,-13,-47,-40c0,0,-16,-27,-16,-72c0,0,0,-57,27,-85c0,0,26,-28,70,-28ZM293,-14c0,0,-117,0,-183,63c0,0,-65,64,-65,180c0,0,0,125,81,191c0,0,82,65,237,67l174,3v41c0,0,0,79,-27,117c0,0,-28,38,-91,38c0,0,-58,0,-85,-26c0,0,-27,-27,-34,-88L81,583c0,0,20,118,108,179c0,0,88,60,239,60c0,0,153,0,236,-75c0,0,83,-75,83,-214V239c0,0,0,-67,15,-93c0,0,15,-26,51,-26c0,0,24,0,46,5V11c0,0,-18,-5,-33,-8c0,0,-15,-3,-30,-5c0,0,-15,-3,-32,-4c0,0,-17,-2,-39,-2c0,0,-79,0,-117,38c0,0,-37,39,-45,114h-4c0,0,-88,-158,-266,-158Z" 
id="f0_1x"
transform="scale(0.001,-0.001)" />

<path d="M446,129c0,0,83,0,128,73c0,0,46,72,46,206c0,0,0,131,-44,201c0,0,-43,71,-128,71c0,0,-85,0,-126,-69c0,0,-41,-68,-41,-208c0,0,0,-274,165,-274ZM357,-14c0,0,-141,0,-217,109c0,0,-77,110,-77,308c0,0,0,201,81,310c0,0,81,109,229,109c0,0,86,0,148,-35c0,0,62,-36,96,-107h1l-1,132v295H827V176c0,0,0,-75,6,-176H630c0,0,-3,11,-7,56c0,0,-5,46,-5,76h-3c0,0,-67,-146,-258,-146Z" 
id="f0_20"
transform="scale(0.001,-0.001)" />

<path d="M107,0V618c0,0,0,66,-2,111c0,0,-2,44,-4,79H301c0,0,2,-14,6,-83c0,0,3,-68,3,-91h3c0,0,31,85,55,120c0,0,24,35,56,52c0,0,33,16,83,16c0,0,40,0,64,-11V636c0,0,-50,11,-89,11c0,0,-78,0,-122,-63c0,0,-44,-63,-44,-188V0Z" 
id="f0_2e"
transform="scale(0.001,-0.001)" />

<path d="M313,-13c0,0,-92,0,-142,50c0,0,-50,50,-50,152V666H19V808H131l66,189H328V808H481V666H328V245c0,0,0,-59,23,-87c0,0,22,-28,69,-28c0,0,25,0,70,10V11c0,0,-77,-24,-177,-24Z" 
id="f0_2g"
transform="scale(0.001,-0.001)" />

<path d="M107,0V808H316V0Zm0,952v155H316V952Z" 
id="f0_25"
transform="scale(0.001,-0.001)" />

<path d="M443,-14c0,0,-183,0,-283,109C160,95,60,204,60,399c0,0,0,200,100,312c0,0,101,111,286,111c0,0,143,0,236,-71c0,0,93,-72,117,-198L588,543c0,0,-9,62,-45,99c0,0,-36,37,-101,37c0,0,-162,0,-162,-271c0,0,0,-279,165,-279c0,0,59,0,100,38c0,0,40,37,50,112L805,269c0,0,-11,-83,-59,-148C746,121,697,56,619,21c0,0,-78,-35,-176,-35Z" 
id="f0_1z"
transform="scale(0.001,-0.001)" />

<path d="M102,0V1051H929V881H322V617H883V447H322V170H959V0Z" 
id="f0_15"
transform="scale(0.001,-0.001)" />

<path d="M448,129c0,0,82,0,127,73c0,0,45,72,45,206c0,0,0,128,-43,199c0,0,-44,72,-128,72c0,0,-168,0,-168,-276c0,0,0,-274,167,-274ZM618,-316V19l4,116h-1c0,0,-70,-149,-264,-149c0,0,-141,0,-217,109c0,0,-77,110,-77,308c0,0,0,199,81,309c0,0,82,110,230,110c0,0,177,0,244,-145c0,0,0,34,5,77c0,0,4,42,7,54H831c0,0,-4,-81,-4,-186V-316Z" 
id="f0_2d"
transform="scale(0.001,-0.001)" />

<path d="M461,129c0,0,193,0,193,276c0,0,0,144,-47,209c0,0,-47,65,-136,65c0,0,-191,0,-191,-274c0,0,0,-135,46,-205c0,0,47,-71,135,-71Zm2,-143c0,0,-188,0,-296,111C167,97,60,209,60,405c0,0,0,194,107,306c0,0,108,111,301,111c0,0,197,0,301,-107c0,0,105,-108,105,-310c0,0,0,-197,-109,-308C765,97,656,-14,463,-14Z" 
id="f0_2b"
transform="scale(0.001,-0.001)" />

<path d="M107,0V627c0,0,0,65,-2,106c0,0,-2,42,-4,75H301c0,0,2,-15,6,-77c0,0,3,-61,3,-85h3c0,0,43,93,107,135c0,0,64,41,153,41c0,0,128,0,197,-79c0,0,68,-79,68,-231V0H630V452c0,0,0,213,-144,213c0,0,-76,0,-123,-65c0,0,-47,-66,-47,-168V0Z" 
id="f0_2a"
transform="scale(0.001,-0.001)" />

<path d="M426,-14c0,0,-166,0,-255,52C171,38,83,90,54,201l184,28c0,0,16,-57,54,-81c0,0,38,-24,134,-24c0,0,88,0,128,22c0,0,41,23,41,70c0,0,0,39,-33,62c0,0,-32,23,-110,38c0,0,-177,35,-239,65c0,0,-62,31,-95,79c0,0,-32,48,-32,118c0,0,0,115,89,180c0,0,89,64,252,64c0,0,144,0,232,-56c0,0,88,-56,109,-162L583,585c0,0,-9,49,-44,74c0,0,-35,24,-112,24c0,0,-74,0,-111,-19c0,0,-38,-19,-38,-64c0,0,0,-35,29,-55c0,0,29,-21,97,-34c0,0,94,-20,168,-40c0,0,73,-21,118,-49c0,0,44,-28,71,-73c0,0,26,-44,26,-113c0,0,0,-117,-96,-184c0,0,-96,-66,-265,-66Z" 
id="f0_2f"
transform="scale(0.001,-0.001)" />

<path d="M147,0V209H362V0Zm0,562V771H362V562Z" 
id="f0_u"
transform="scale(0.001,-0.001)" />

<path d="M426,-14c0,0,-160,0,-255,71c0,0,-95,72,-113,213l139,13c0,0,27,-187,229,-187c0,0,101,0,159,50c0,0,58,50,58,149c0,0,0,86,-66,134c0,0,-66,48,-191,48H310V594h73c0,0,111,0,172,48c0,0,60,48,60,133c0,0,0,84,-49,132c0,0,-50,49,-147,49c0,0,-89,0,-144,-45c0,0,-55,-46,-64,-129L76,793c0,0,15,129,107,201c0,0,92,73,237,73c0,0,158,0,246,-74c0,0,87,-73,87,-204c0,0,0,-101,-56,-164c0,0,-56,-63,-164,-85v-3c0,0,118,-13,184,-79c0,0,66,-67,66,-167c0,0,0,-146,-93,-226c0,0,-92,-79,-264,-79Z" 
id="f1_n"
transform="scale(0.001,-0.001)" />


</defs>
</svg>